<svg width="297mm" height="210mm" viewBox="0 0 297 210" xmlns="http://www.w3.org/2000/svg"><path style="fill:none;stroke:#000;stroke-width:1;stroke-linecap:round;stroke-linejoin:round" d="M33.5 30h230v150h-230z"/><path style="fill:#d371fb;fill-opacity:1;stroke:#d371fb;stroke-width:1;stroke-linecap:round;stroke-linejoin:round;stroke-opacity:1" d="M69.793 124.185c-4.51-4.253-11.12.3-14.79 3.687-3.765 3.292-8.063 10.958-1.85 14.09 7.097 2.664 13.545-3.714 16.722-9.445 1.516-2.297 2.386-4.65 2.985-1.504 4.43 7.604 2.762 17.632-2.026 24.676-4.633 4.053-1.84-6.623 1.028-7.904 7.38-9.344 18.609-14.973 25.354-24.844 2.602-6.261-6.327.47-1.913 3.51 2.065 4.433 12.494.153 11.117-.539-5.104 2.207-8.212 10.333-3.09 14.074 6.46 2.698 12.883-3.214 16.805-7.823 1.934-3.764 8.772-5.535 9.524-8.464-4.894 1.438-9.424 6.013-9.397 11.341 3.259 3.912 8.593-3.032 10.735-6.065 1.08-3.175-2.441 2.74-1.042 4.693.351 6.959 8.452 2.926 11.359.118 2.21-1.636 7.392-7.2 6.757-7.252-2.156 4.206-2.478 9.946-4.266 14.652-.755 2.338-2.889 9.83.168 4.277.916-7.3 1.485-16.234 8.308-20.657 6.767-2.263 8.628 5.45 3.64 9.009-1.954 1.906-7.09 7.249-.891 5.326 9-1.993 18.194-5.094 24.683-11.982 4.327-4.53 9.443-10.194 8.58-16.913-4.875-3.685-7.45 6.658-8.892 10.2-1.745 5.317-3.873 10.558-5.017 16.041 4.514-.082 7.032-7.072 11.17-9.318 2.596-3.061 6.915-3.993 4.1 1.103-1.71 4.186-6.012 11.783-.206 14.467 3.1 1.357 10.077-3.146 10.083-3.102-3.258 2.22-10.622 4.182-11.398-1.504-1.172-5.109 5.415-10.725 3.366-14.691-6.333 2.145-10.697 7.609-15.24 12.217.02-1.372 2.102-9.357 3.571-12.932.942-3.8 5.055-12.287 5.582-12.69 3.812 3.308-.46 9.427-2.74 12.76-4.662 5.979-10.62 11.361-18.216 13.08-3.046.43-9.662 3.967-10.805 1.605 2.56-3.573 9.72-8.582 5.404-13.104-5.61-2.116-11.974 2.56-13.52 7.988-1.43 4.67-2.743 10.16-2.84 14.697 3.272-3.283 3.296-11.267 5.53-16.337 1.26-2.586 1.635-7.401-1.915-3.126-3.328 3.649-6.795 9.047-12.276 9.022-5.564-.127.478-12.568-4.493-7.013-1.102 2.677-7.894 9.53-7.777 3.156-.424-3.344 6.772-9.726 6.028-7.185-5.244 2.531-8.852 7.123-12.855 11.151-3.781 4.827-13.874 4.01-12.79-3.56-.321-3.667 6.163-8.389 3.584-6.696-3.956 2.636-12.121.26-9.351-5.45.439.89-2.85 7.394-6.062 9.213-7.667 7.414-17.444 13.11-22.723 22.664-3.445 6.914 4.958 4.823 5.765-.087 3.323-7.076 4.59-16.045.384-23.032-5.205-1.284-5.713 7.186-9.773 9.474-3.993 5.232-15.52 2.196-12.349-5.312 2.487-5.728 8.298-11.738 15.06-10.413 1.378.264 1.85 2.025 3.11.653z"/><circle style="fill:none;fill-opacity:1;stroke:#000;stroke-width:2;stroke-linecap:round;stroke-linejoin:round;stroke-dasharray:none;stroke-opacity:1" cx="135.308" cy="205.318" r="8.921" transform="rotate(-25.344)"/><path style="fill:#adfdff;stroke:#000;stroke-width:2;stroke-linecap:round;stroke-linejoin:round;stroke-dasharray:none;fill-opacity:1" d="M214.347 102.255a38.236 38.236 0 0 0-18.189 50.923 38.236 38.236 0 0 0 3.282 5.53 37.779 53.355 64.656 0 0 38.727-6.16 37.779 53.355 64.656 0 0 29.336-26.112 38.236 38.236 0 0 0-2.233-5.992 38.236 38.236 0 0 0-50.923-18.189z"/><path style="fill:none;stroke:#000;stroke-width:2;stroke-linecap:butt;stroke-linejoin:miter;stroke-dasharray:none;stroke-opacity:1" d="m212.4 119.019-4.457 17.24M218.766 125.254l-17.187 4.77M203.823 121.402l12.697 12.474"/><circle style="fill:none;fill-opacity:1;stroke:#000;stroke-width:2;stroke-linecap:round;stroke-linejoin:round;stroke-dasharray:none;stroke-opacity:1" cx="245.761" cy="-8.067" r="8.921" transform="rotate(33.15)"/><circle style="fill:#000;fill-opacity:1;stroke:#000;stroke-width:2;stroke-linecap:round;stroke-linejoin:round;stroke-dasharray:none;stroke-opacity:1" cx="245.762" cy="-8.067" r="1.32" transform="rotate(33.15)"/><path style="fill:none;stroke:#000;stroke-width:2;stroke-linecap:butt;stroke-linejoin:miter;stroke-dasharray:none;stroke-opacity:1" d="m231.28 107.991 10.705 14.23M240.124 106.899l-6.982 16.413M227.798 116.184l17.669-2.156"/><circle style="fill:none;fill-opacity:1;stroke:#000;stroke-width:2;stroke-linecap:round;stroke-linejoin:round;stroke-dasharray:none;stroke-opacity:1" cx="188.532" cy="183.575" r="8.921" transform="rotate(-18.297)"/><circle style="fill:#000;fill-opacity:1;stroke:#000;stroke-width:2;stroke-linecap:round;stroke-linejoin:round;stroke-dasharray:none;stroke-opacity:1" cx="188.533" cy="183.575" r="1.32" transform="rotate(-18.297)"/><circle style="fill:#000;fill-opacity:1;stroke:#000;stroke-width:2;stroke-linecap:round;stroke-linejoin:round;stroke-dasharray:none;stroke-opacity:1" cx="149.947" cy="219.654" r="4.334" transform="rotate(-25.344)"/><path style="fill:none;fill-opacity:1;stroke:#000;stroke-width:2;stroke-linecap:round;stroke-linejoin:round;stroke-dasharray:none;stroke-opacity:1" d="M165.563 220.577a23.337 34.277 0 0 1-31.232 0" transform="rotate(-25.344)"/><path style="fill:#d371fb;fill-opacity:1;stroke:#d371fb;stroke-width:1;stroke-linecap:round;stroke-linejoin:round;stroke-dasharray:none;stroke-opacity:1" d="M41.776 53.314c4.071-1.16 14.895-8.29 13.731-8.167-7.106 15.195-10.03 31.952-15.794 47.593 5.962-6.852 5.37-18.338 9.094-26.854 2.709-9.465 11.594-16.524 21.016-18.483 11.248-.182 5.118 13.999.35 18.611-2.398 4.977-12.336 9.974-11.169 10.726 7.787-2.162 21.007 2.334 15.247 12.338-3.63 7.363-17.116 11.022-21.65 2.85.044-7.715 12.62-1.264 18.559-3.912 9.164-1.667 19.83-5.124 24.512-13.755-5.77 1.51-4.473 10.425 2.32 7.642-9.535 4.323-2.309 14.747 5.797 9.193 7.356-3.417 14.226-8.132 19.954-13.855-5.41-.96-13.544 6.982-13.822 13.385 5.092 4.872 13.351-4.266 15.505-9.526 3.324-8.605-5.864 4.676-1.692 8.458 7.33 6.34 16.236-2.716 23.25-5.787 2.875-1.708 14.709-6.56 6.195-3.86-7.004.715-14.191 14.964-2.49 11.463 11.787-4.631 19.702-15.997 24.136-27.435 3.838-10.83-8.749-2.411-10.329 2.628-5.721 6.321-8.342 22.564 4.806 17.83 5.654-.74 15.738-8.123 15.911-10.227-5.13 3.991-8.395 17.715 2.464 13.803 6.02-1.17 17.777-11.054 17.602-11.277-3.98 7.25-9.532 13.97-12.002 21.857 6.16-3.897 7.74-12.643 12.96-17.867 2.53-6.416 17.795-12.413 16.628-1.808-2.282 5.721-12.778 3.736-13.886 6.303 10.687 1.436 22.341-1.25 29.752-9.479-6.27-.587-12.362 12.32-2.678 11.41 7.655 1.56 11.3-14.545 6.967-12.647 4.447.819 17.601-.311 15.862-.435-4.452.324-12.834-2.125-16.466.55 7.13 8.248-11.874 17.533-9.529 5.972 2.848-4.747 6.308-4.886.366-.83-6.662 5.159-15.803 5.158-23.802 4.36-2.432 2.3 9.183-.265 11.081-2.364 9.914-3.986-.038-14.017-6.465-8.237-9.812 4.989-14 15.843-19.975 24.322 2.672-3.366 5.499-11.283 9.124-15.868 2.731-3.298 5.33-9.048-.247-3.837-5.744 4.401-13.17 12.002-20.8 8.137-3.003-3.944 8.455-17.48-.15-9.215-5.101 4.836-13.534 9.134-20.273 5.603-2.645-8.483 4.377-18.087 9.967-23.176 5.994 2.536-2.508 13.807-5.22 18.277-4.75 5.973-10.546 13.58-19.006 13.135-6.564-5.477 7.622-11.507 9.332-12.156-9.26 3.115-16.733 10.596-26.491 12.228-9.869 1.87-2.91-12.96-5.259-12.353-1.747 5.614-5.995 13.08-12.674 12.544-4.367-5.033 9.39-16.244 8.743-12.076-6.782 5.348-14.024 12.712-23.307 12.24-10.48-2.025 8.086-12.61-2.247-10.41-5.23-.927 2.338-10.497-3.218-3.035-8.654 9.204-22.442 10.398-34.352 9.53-9.81-1.623-7.608 11.462 1.04 10.111 8.193-.082 18.373-5.67 17.833-14.966-1.607-8.255-14.19-7.771-19.265-5.642 9.13-4.029 16.171-12.631 19.577-21.87 3.406-10.516-10.436-9.681-15.677-4.68C54.115 54.228 48.35 60.948 46.716 69.3c-.835 6.967-6.985 19.051-5.673 23.102 3.506-9.36 5.519-19.35 8.623-28.9.38-5.778 6.966-15.397 6.074-18.838-3.983 3.988-9.253 5.888-13.964 8.65z"/></svg>